<?xml version="1.0" encoding="UTF-8"?>
<svg xmlns="http://www.w3.org/2000/svg" xmlns:xlink="http://www.w3.org/1999/xlink" width="16px" height="16px" viewBox="0 0 16 16" version="1.1">
<g id="surface1">
<path style=" stroke:none;fill-rule:nonzero;fill:rgb(20%,21.176471%,24.705882%);fill-opacity:1;" d="M 8 9.332031 L 7.527344 9.804688 L 8 10.277344 L 8.472656 9.804688 Z M 8.667969 3.332031 C 8.667969 2.964844 8.367188 2.667969 8 2.667969 C 7.632812 2.667969 7.332031 2.964844 7.332031 3.332031 Z M 4.195312 6.472656 L 7.527344 9.804688 L 8.472656 8.863281 L 5.136719 5.527344 Z M 8.472656 9.804688 L 11.804688 6.472656 L 10.863281 5.527344 L 7.527344 8.863281 Z M 8.667969 9.332031 L 8.667969 3.332031 L 7.332031 3.332031 L 7.332031 9.332031 Z M 8.667969 9.332031 "/>
<path style="fill:none;stroke-width:2;stroke-linecap:butt;stroke-linejoin:miter;stroke:rgb(20%,21.176471%,24.705882%);stroke-opacity:1;stroke-miterlimit:4;" d="M 4.998047 16.001953 L 4.998047 16.998047 C 4.998047 18.105469 5.894531 19.001953 7.001953 19.001953 L 16.998047 19.001953 C 18.105469 19.001953 19.001953 18.105469 19.001953 16.998047 L 19.001953 16.001953 " transform="matrix(0.666667,0,0,0.666667,0,0)"/>
</g>
</svg>
